PathFileType	4	(X/Y/Z)	c:/Users/goper/Files/vsCode/490R/osim_files/C04/C04_SSWS_03.trc
DataRate	CameraRate	NumFrames	NumMarkers	Units                	OrigDataRate	OrigDataStartFrame	OrigNumFrames
250.00	250.00	4	36	mm	250.0	2160	2879
                Frame#	Time	LPSIS			LASIS			LTH1			LTH2			LTH3			LTH4			LLFE			LMFE			LSH1			LSH2			LSH3			LSH4			LLMAL			LMMAL			LCAL			LMTP5			LTOE			LMTP1			RPSIS			RASIS			RTH1			RTH2			RTH3			RTH4			RLFE			RMFE			RSH1			RSH2			RSH3			RSH4			RLMAL			RMMAL			RCAL			RMTP1			RTOE			RMTP5		
		X1	Y1	Z1	X2	Y2	Z2	X3	Y3	Z3	X4	Y4	Z4	X5	Y5	Z5	X6	Y6	Z6	X7	Y7	Z7	X8	Y8	Z8	X9	Y9	Z9	X10	Y10	Z10	X11	Y11	Z11	X12	Y12	Z12	X13	Y13	Z13	X14	Y14	Z14	X15	Y15	Z15	X16	Y16	Z16	X17	Y17	Z17	X18	Y18	Z18	X19	Y19	Z19	X20	Y20	Z20	X21	Y21	Z21	X22	Y22	Z22	X23	Y23	Z23	X24	Y24	Z24	X25	Y25	Z25	X26	Y26	Z26	X27	Y27	Z27	X28	Y28	Z28	X29	Y29	Z29	X30	Y30	Z30	X31	Y31	Z31	X32	Y32	Z32	X33	Y33	Z33	X34	Y34	Z34	X35	Y35	Z35	X36	Y36	Z36

2160	8.63600	-1453.14941	953.87323	247.35120	-1640.00623	937.69110	295.91138	-1584.01587	681.99854	373.94727	-1608.84302	627.42719	365.10187	-1645.40247	712.24365	366.32236	-1680.25549	659.26746	353.98273	-1708.13721	454.30249	327.27573	-1711.35828	447.33646	212.62207	-1684.37817	343.33948	337.11325	-1687.95569	295.79739	332.84442	-1755.61133	344.03677	325.84985	-1747.99670	310.13660	321.22342	-1801.26343	67.21380	305.78168	-1784.85596	96.42863	223.85493	-1734.77441	28.65517	262.89673	-1937.30847	64.00507	312.51669	-1939.07446	104.89306	264.19241	-1924.19788	67.13730	214.34113	-1447.40271	957.59216	172.27776	-1609.03027	931.70282	88.89281	-1473.21899	715.94373	30.86719	-1466.23523	655.83002	45.42246	-1539.52258	711.97400	31.68155	-1543.11414	651.11359	45.80180	-1473.34778	437.13666	86.52494	-1470.42676	438.43390	197.60910	-1355.20874	344.43289	68.57491	-1341.40466	301.57474	75.62376	-1414.97876	324.22412	75.22073	-1387.28381	275.14511	83.45148	-1253.54626	107.76479	106.22241	-1258.31348	117.38893	197.48813	-1181.47473	99.27277	147.85542	-1371.11731	18.51969	195.67831	-1394.38904	39.39489	165.53526	-1362.36414	15.11690	100.55418
2161	8.64000	-1458.21924	953.90808	247.87062	-1645.14014	937.49255	296.09686	-1588.75806	681.84503	374.22681	-1613.60217	626.95355	365.21985	-1650.36365	711.64795	366.45914	-1684.94775	658.77557	354.07251	-1712.11707	453.91171	327.08282	-1714.64661	446.70938	212.46118	-1709.74072	334.39423	334.84293	-1690.58276	295.26431	332.65930	-1758.72986	343.32544	325.73657	-1746.16943	274.09442	314.04684	-1795.77051	71.10702	310.48239	-1785.72571	95.90280	223.23470	-1735.25488	28.86521	262.89896	-1938.45056	62.10150	311.40277	-1940.18591	102.96544	263.03372	-1924.72961	65.19212	213.34892	-1452.31592	957.58209	172.74057	-1614.65039	931.25897	90.00961	-1477.79590	715.82227	31.45147	-1470.84216	655.88464	46.07240	-1544.08765	711.70837	32.08428	-1547.66968	650.86041	46.18287	-1477.45215	436.91470	86.68780	-1475.08130	438.10394	197.65291	-1358.47986	345.33701	68.71732	-1343.41541	302.82022	75.86867	-1417.67529	323.39203	75.00465	-1390.05725	275.70230	83.40374	-1254.71313	109.16415	106.17662	-1259.90259	118.82704	197.34026	-1182.71643	101.62638	147.83217	-1371.22437	18.68540	195.59398	-1394.58643	39.30290	165.48660	-1362.47266	15.19008	100.58206
2162	8.64400	-1463.24048	953.85480	248.37709	-1650.45642	937.26514	296.41525	-1593.52161	681.70221	374.54697	-1619.29626	624.65869	366.07361	-1653.56519	710.36664	365.84042	-1689.73938	658.16309	354.03403	-1715.97705	453.44824	326.91141	-1717.73938	446.07187	212.31607	-1713.02795	333.56683	334.55832	-1693.28967	294.57172	332.44205	-1761.80273	342.70782	325.69638	-1748.64490	272.76410	313.98077	-1797.23108	70.61745	310.05615	-1786.82654	95.28165	222.67252	-1735.83374	29.11278	262.89954	-1939.70850	59.93829	310.29099	-1941.37317	100.84374	261.83786	-1925.27893	63.14157	212.34447	-1457.44226	957.45721	173.31470	-1620.31970	930.80804	91.16663	-1482.47083	715.63275	32.08951	-1475.42456	655.75323	46.68806	-1548.77344	711.47852	32.55872	-1552.23669	650.49677	46.65014	-1481.74524	436.74670	86.91335	-1479.78113	437.65680	197.73068	-1361.85181	346.20538	68.90877	-1346.54578	303.78452	76.06912	-1420.95007	323.88632	74.79821	-1392.81421	276.24884	83.30422	-1256.17493	110.54460	106.21597	-1261.57288	120.18786	197.20807	-1183.99695	103.99422	147.88908	-1371.46472	18.69163	195.46141	-1394.77539	39.15837	165.49695	-1362.48987	15.30879	100.55773
2163	8.64800	-1468.35803	953.76648	248.97623	-1655.84961	937.03351	296.68503	-1598.31140	681.57562	374.90582	-1623.06946	626.17236	365.45306	-1660.51282	710.49719	366.78513	-1694.53430	657.47968	354.10287	-1721.07458	452.07532	326.10739	-1720.72144	445.39084	212.30684	-1693.97375	341.46100	338.00671	-1695.96643	293.90967	332.26077	-1764.82971	342.18015	325.72595	-1756.11182	306.81366	320.09625	-1798.57971	70.13163	309.67285	-1788.03931	94.62502	221.92661	-1733.58887	30.56321	263.12985	-1941.18982	57.68936	309.06836	-1942.64673	98.52589	260.69080	-1926.06909	60.79354	211.50671	-1462.60144	957.28107	173.83841	-1626.02576	930.35126	92.35629	-1487.06921	715.47009	32.67367	-1479.38293	655.61017	47.43748	-1553.36975	711.20538	33.07139	-1552.76587	652.20648	44.45000	-1486.08032	436.53671	87.08137	-1484.77197	437.02551	197.86215	-1365.47437	347.04779	69.16439	-1350.70007	304.56177	76.19209	-1424.84814	325.38715	74.75170	-1395.74255	276.86404	83.22340	-1257.43152	112.08886	106.14134	-1263.19995	121.64247	197.09369	-1185.47693	106.44096	147.97566	-1371.73987	18.65960	195.36320	-1394.95264	38.93426	165.59203	-1362.55835	15.42240	100.54978
